<svg width="41" height="41" viewBox="0 0 41 41" fill="none" xmlns="http://www.w3.org/2000/svg">
<path d="M17.7077 7.69551C18.4184 4.76816 22.5816 4.76816 23.2923 7.69552C23.7514 9.58655 25.9179 10.484 27.5797 9.47142C30.1522 7.90398 33.096 10.8478 31.5286 13.4203C30.516 15.0821 31.4135 17.2486 33.3045 17.7077C36.2318 18.4184 36.2318 22.5816 33.3045 23.2923C31.4135 23.7514 30.516 25.9179 31.5286 27.5797C33.096 30.1522 30.1522 33.096 27.5797 31.5286C25.9179 30.516 23.7514 31.4135 23.2923 33.3045C22.5816 36.2318 18.4184 36.2318 17.7077 33.3045C17.2486 31.4135 15.0821 30.516 13.4203 31.5286C10.8478 33.096 7.90398 30.1522 9.47142 27.5797C10.484 25.9179 9.58655 23.7514 7.69552 23.2923C4.76816 22.5816 4.76816 18.4184 7.69551 17.7077C9.58655 17.2486 10.484 15.0821 9.47142 13.4203C7.90398 10.8478 10.8478 7.90398 13.4203 9.47141C15.0821 10.484 17.2486 9.58655 17.7077 7.69551Z" stroke="#2E31FF" stroke-width="2.5" stroke-linecap="round" stroke-linejoin="round"/>
<path d="M25.5 20.5C25.5 23.2614 23.2614 25.5 20.5 25.5C17.7386 25.5 15.5 23.2614 15.5 20.5C15.5 17.7386 17.7386 15.5 20.5 15.5C23.2614 15.5 25.5 17.7386 25.5 20.5Z" stroke="#2E31FF" stroke-width="2.5" stroke-linecap="round" stroke-linejoin="round"/>
</svg>
