<svg width="41" height="41" viewBox="0 0 41 41" fill="none" xmlns="http://www.w3.org/2000/svg">
<path fill-rule="evenodd" clip-rule="evenodd" d="M36.5 20.5C36.5 29.3366 29.3366 36.5 20.5 36.5C11.6634 36.5 4.5 29.3366 4.5 20.5C4.5 11.6634 11.6634 4.5 20.5 4.5C29.3366 4.5 36.5 11.6634 36.5 20.5ZM20.5 14.5C19.7623 14.5 19.1152 14.8984 18.7664 15.5015C18.2133 16.4576 16.9898 16.7843 16.0337 16.2312C15.0776 15.6781 14.7509 14.4547 15.3039 13.4985C16.3384 11.7104 18.2767 10.5 20.5 10.5C23.8137 10.5 26.5 13.1863 26.5 16.5C26.5 19.1124 24.8304 21.3349 22.5 22.1586V22.5C22.5 23.6046 21.6046 24.5 20.5 24.5C19.3955 24.5 18.5 23.6046 18.5 22.5V20.5C18.5 19.3954 19.3955 18.5 20.5 18.5C21.6046 18.5 22.5 17.6046 22.5 16.5C22.5 15.3954 21.6046 14.5 20.5 14.5ZM20.5 30.5C21.6046 30.5 22.5 29.6046 22.5 28.5C22.5 27.3954 21.6046 26.5 20.5 26.5C19.3954 26.5 18.5 27.3954 18.5 28.5C18.5 29.6046 19.3954 30.5 20.5 30.5Z" fill="#2E31FF"/>
</svg>
