<svg width="726" height="726" viewBox="0 0 726 726" fill="none" xmlns="http://www.w3.org/2000/svg">
<g clip-path="url(#clip0_2855_20067)">
<rect width="726" height="726" rx="153" fill="url(#paint0_linear_2855_20067)"/>
<path opacity="0.9" fill-rule="evenodd" clip-rule="evenodd" d="M336.199 111.816C347.162 118.214 353.087 128.675 355.917 139.369C355.973 139.582 356.025 139.796 356.071 140.011L390.887 299.628L418.074 182.689C418.124 182.475 418.178 182.261 418.238 182.049C418.379 181.542 418.528 181.003 418.684 180.438C420.819 172.689 424.379 159.771 431.979 149.855C436.368 144.13 442.451 138.856 450.761 135.969C459.057 133.087 468.209 133.056 477.943 135.501C486.178 137.569 493.545 141.032 499.473 146.458C505.493 151.968 509.187 158.736 511.19 166.02C514.941 179.653 512.907 195.883 509.817 211.836C509.805 211.901 509.792 211.965 509.778 212.03L506.904 225.892C513.855 224.375 521.339 224.709 529.178 226.883C542.481 230.573 553.352 238.143 558.95 251.52C564 263.585 563.769 278.234 561.292 294.151L561.272 294.282C554.594 337.203 539.031 437.229 528.052 491.118C521.01 525.686 511.486 558.311 487.259 581.652C462.603 605.406 425.59 617 369.83 617C328.376 617 300.751 612.274 279.027 597.618C257.857 583.337 244.353 560.773 227.748 532.597C201.55 488.139 175.984 463.918 141.083 450.662L146.48 436.564L141.083 450.662C129.05 446.092 118.484 437.92 112.11 426.249C105.653 414.426 104.227 400.337 108.247 385.485C112.708 368.999 123.782 358.103 138.994 354.854C152.824 351.901 167.722 355.764 180.835 362.366C181.163 362.531 181.485 362.708 181.8 362.897L244.458 400.377L202.682 221.831C202.579 221.389 202.495 220.943 202.432 220.493C200.549 207.066 201.973 194.327 208.443 183.836C215.072 173.088 225.621 166.921 237.419 164.219C244.433 162.613 252.72 161.848 261.143 163.376C259.641 153.562 259.753 141.779 265.18 131.033C271.185 119.144 282.381 111.071 297.956 107.719C312.16 104.662 325.342 105.48 336.199 111.816ZM271.112 213.781C271.105 213.746 271.098 213.712 271.091 213.677C268.548 200.94 263.709 196.468 260.378 194.665C256.492 192.56 250.945 192.087 244.208 193.629C238.433 194.951 235.715 197.272 234.26 199.632C232.683 202.188 231.236 207.005 232.354 215.683L282.087 428.236C283.468 434.138 281.169 440.29 276.251 443.857C271.333 447.425 264.749 447.716 259.533 444.596L166.697 389.064C157.064 384.303 149.698 383.432 145.345 384.361C142.302 385.011 139.301 386.689 137.501 393.339C135.259 401.623 136.421 407.61 138.725 411.829C141.112 416.2 145.48 420.036 151.878 422.466C195.33 438.969 225.541 469.234 253.878 517.321C271.359 546.985 281.588 562.898 296.018 572.632C309.892 581.993 329.734 586.823 369.83 586.823C421.973 586.823 449.641 575.91 466.194 559.961C483.176 543.601 491.389 519.328 498.359 485.117C509.175 432.028 524.636 332.688 531.351 289.529C533.595 275.104 532.733 267.309 530.985 263.131C529.785 260.266 527.692 257.796 521.049 255.954C516.036 254.563 513.293 255.21 511.674 255.932C509.776 256.779 507.579 258.58 505.175 262.117C501.058 268.177 498.539 275.564 495.842 283.473C495.131 285.558 494.408 287.679 493.639 289.822L468.985 405.253C467.244 413.404 459.198 418.606 451.015 416.872C442.831 415.138 437.608 407.125 439.349 398.974L464.2 282.627L464.218 282.539L480.086 206.024C483.165 190.095 483.667 180.167 481.969 173.994C481.246 171.367 480.216 169.817 478.971 168.677C477.633 167.452 475.193 165.932 470.535 164.762C465.247 163.434 462.295 163.922 460.74 164.462C459.2 164.997 457.685 166.049 456.061 168.168C452.237 173.156 450.066 180.696 447.516 189.819L405.175 371.945C403.576 378.823 397.401 383.677 390.313 383.629C383.224 383.581 377.117 378.644 375.612 371.744L326.541 146.771C325.078 141.446 322.906 139.034 320.881 137.853C318.714 136.588 313.987 135.142 304.356 137.215C296.097 138.993 293.438 142.237 292.247 144.594C290.69 147.677 290.072 152.539 291.163 159.262L300.769 207.596L341.368 372.233C343.364 380.326 338.395 388.497 330.27 390.485C322.145 392.473 313.94 387.524 311.944 379.431L271.263 214.461C271.208 214.239 271.158 214.016 271.114 213.792L271.112 213.781ZM312.926 438.866C316.462 431.313 325.475 428.045 333.058 431.567C355.192 441.845 399.476 476.736 395.55 535.271C394.992 543.586 387.773 549.876 379.425 549.321C371.077 548.765 364.761 541.575 365.319 533.26C368.058 492.411 336.75 466.578 320.255 458.917C312.672 455.396 309.391 446.419 312.926 438.866Z" fill="white"/>
<line opacity="0.2" x1="364.5" y1="-69" x2="364.5" y2="795" stroke="white" stroke-width="3"/>
<line opacity="0.2" x1="816.939" y1="819.061" x2="-93.0606" y2="-90.9393" stroke="white" stroke-width="3"/>
<line opacity="0.2" x1="-86.0607" y1="809.939" x2="809.939" y2="-86.0607" stroke="white" stroke-width="3"/>
<circle opacity="0.2" cx="363" cy="363" r="255.5" stroke="white" stroke-width="3"/>
<circle opacity="0.2" cx="363" cy="363" r="361.5" stroke="white" stroke-width="3"/>
<line opacity="0.2" x1="619.5" y1="-69" x2="619.5" y2="795" stroke="white" stroke-width="3" stroke-dasharray="16 16"/>
<line opacity="0.2" x1="107.5" y1="-69" x2="107.5" y2="795" stroke="white" stroke-width="3" stroke-dasharray="16 16"/>
<line opacity="0.2" x1="-405" y1="361.5" x2="1131" y2="361.5" stroke="white" stroke-width="3"/>
<line opacity="0.2" x1="-405" y1="104.5" x2="1131" y2="104.5" stroke="white" stroke-width="3" stroke-dasharray="16 16"/>
<line opacity="0.2" x1="-405" y1="615.5" x2="1131" y2="615.5" stroke="white" stroke-width="3" stroke-dasharray="16 16"/>
</g>
<rect x="0.5" y="0.5" width="725" height="725" rx="152.5" stroke="#2E31FF" stroke-opacity="0.05"/>
<defs>
<linearGradient id="paint0_linear_2855_20067" x1="-11.5801" y1="-21.4271" x2="907.072" y2="267.593" gradientUnits="userSpaceOnUse">
<stop stop-color="#2E31FF"/>
<stop offset="1" stop-color="#2E31FF" stop-opacity="0.74"/>
</linearGradient>
<clipPath id="clip0_2855_20067">
<rect width="726" height="726" rx="153" fill="white"/>
</clipPath>
</defs>
</svg>
