<svg width="18" height="21" viewBox="0 0 18 21" fill="none" xmlns="http://www.w3.org/2000/svg">
<path d="M15.65 15.3598L16.287 15.4891L15.65 15.3598ZM16.9404 7.68061L16.2981 7.58107L16.9404 7.68061ZM16.114 5.70791L16.2884 5.08174L16.114 5.70791ZM14.9383 4.43869L15.5749 4.57019L15.5765 4.56181L14.9383 4.43869ZM14.1315 2.13639L13.9726 2.76666L14.1315 2.13639ZM12.518 3.54335L11.8918 3.36915C11.8893 3.37829 11.8869 3.38748 11.8848 3.39672L12.518 3.54335ZM10.8651 10.6815L10.23 10.8195C10.2945 11.1167 10.5566 11.3294 10.8607 11.3315C11.1649 11.3335 11.4298 11.1244 11.4984 10.8281L10.8651 10.6815ZM8.94993 1.86575L9.58511 1.72775C9.5831 1.71849 9.58088 1.70926 9.57847 1.70009L8.94993 1.86575ZM6.41651 2.59874L5.77529 2.70525C5.77638 2.71183 5.77758 2.7184 5.77888 2.72495L6.41651 2.59874ZM6.79529 4.51241L6.15766 4.63862C6.15957 4.64828 6.1617 4.65789 6.16405 4.66746L6.79529 4.51241ZM4.12449 4.80758L3.48073 4.89749C3.48283 4.91246 3.48544 4.92736 3.48857 4.94215L4.12449 4.80758ZM6.06885 13.151L5.62472 13.6256C5.83978 13.8268 6.1633 13.8583 6.41313 13.7023C6.66297 13.5463 6.77667 13.2418 6.69023 12.9602L6.06885 13.151ZM1.88829 13.151L2.23432 12.6007L2.2343 12.6007L1.88829 13.151ZM5.03547 16.8012L4.47489 17.1302L5.03547 16.8012ZM12.7136 11.8597C12.6389 12.2108 12.863 12.556 13.2141 12.6307C13.5653 12.7054 13.9105 12.4813 13.9852 12.1302L12.7136 11.8597ZM7.74932 11.1218C7.83495 11.4704 8.18698 11.6836 8.5356 11.598C8.88423 11.5123 9.09743 11.1603 9.0118 10.8117L7.74932 11.1218ZM8.70443 13.0932C8.37907 12.9415 7.99234 13.0823 7.84064 13.4077C7.68895 13.733 7.82973 14.1197 8.15509 14.2714L8.70443 13.0932ZM9.87681 17.122C9.85289 17.4802 10.1239 17.7899 10.482 17.8139C10.8402 17.8378 11.15 17.5668 11.1739 17.2086L9.87681 17.122ZM10.063 20.4619C12.2429 20.4619 13.7037 20.0069 14.6804 19.0621C15.6387 18.1351 16.0124 16.8422 16.287 15.4891L15.013 15.2305C14.7415 16.5683 14.424 17.5014 13.7766 18.1277C13.1475 18.7363 12.0877 19.1619 10.063 19.1619V20.4619ZM16.287 15.4891C16.7156 13.3768 17.3231 9.45588 17.5828 7.78015L16.2981 7.58107C16.0364 9.27024 15.4341 13.1552 15.013 15.2305L16.287 15.4891ZM17.5828 7.78015C17.6797 7.15446 17.6909 6.56778 17.4876 6.08016C17.2608 5.53603 16.8199 5.22976 16.2884 5.08174L15.9396 6.33408C16.1853 6.40251 16.2497 6.48903 16.2877 6.58036C16.3493 6.7282 16.3851 7.01964 16.2981 7.58107L17.5828 7.78015ZM16.2884 5.08174C15.8566 4.9615 15.448 4.98052 15.0835 5.1437C14.731 5.30152 14.4838 5.56558 14.3098 5.82259C13.9863 6.30075 13.8037 6.95261 13.7075 7.21781L14.9295 7.6613C15.0832 7.23785 15.1826 6.85241 15.3865 6.55117C15.4763 6.41848 15.5541 6.35732 15.6147 6.33021C15.6633 6.30846 15.7556 6.28284 15.9396 6.33408L16.2884 5.08174ZM14.955 7.57104L15.5749 4.57017L14.3017 4.30721L13.6819 7.30807L14.955 7.57104ZM15.5765 4.56181C15.6969 3.93774 15.7792 3.29036 15.629 2.74223C15.5484 2.44807 15.3992 2.17296 15.1552 1.94871C14.9152 1.72814 14.6184 1.58882 14.2905 1.50612L13.9726 2.76666C14.1471 2.81066 14.2324 2.86627 14.2756 2.9059C14.3147 2.94184 14.3496 2.99219 14.3752 3.08574C14.4375 3.31302 14.4207 3.6901 14.3001 4.31557L15.5765 4.56181ZM14.2905 1.50612C13.9024 1.40826 13.5336 1.40855 13.197 1.52593C12.8598 1.64355 12.6138 1.85824 12.4374 2.08936C12.1111 2.5167 11.972 3.08097 11.8918 3.36915L13.1442 3.71756C13.2461 3.35145 13.3283 3.06462 13.4706 2.87824C13.5285 2.8025 13.5785 2.76968 13.6252 2.7534C13.6725 2.73689 13.7753 2.7169 13.9726 2.76666L14.2905 1.50612ZM11.8848 3.39672L10.2319 10.5348L11.4984 10.8281L13.1513 3.68999L11.8848 3.39672ZM11.5003 10.5435L9.58511 1.72775L8.31475 2.00374L10.23 10.8195L11.5003 10.5435ZM9.57847 1.70009C9.46551 1.27149 9.22731 0.846419 8.78257 0.585828C8.3424 0.327919 7.81205 0.29715 7.24957 0.418708L7.52417 1.68937C7.89045 1.61022 8.058 1.668 8.12536 1.70747C8.18815 1.74426 8.2671 1.82539 8.32139 2.0314L9.57847 1.70009ZM7.24957 0.418708C6.62824 0.552983 6.17513 0.878356 5.93167 1.36237C5.70466 1.81367 5.70916 2.30713 5.77529 2.70525L7.05772 2.49224C7.01435 2.23114 7.03967 2.05261 7.09302 1.94654C7.12992 1.87318 7.21675 1.75581 7.52417 1.68937L7.24957 0.418708ZM5.77888 2.72495L6.15766 4.63862L7.43292 4.3862L7.05413 2.47253L5.77888 2.72495ZM7.43301 4.38668C7.28306 3.62613 6.92673 3.08058 6.39019 2.78894C5.87711 2.51007 5.32012 2.53048 4.88983 2.6294L5.1811 3.89635C5.43557 3.83785 5.63531 3.85826 5.76937 3.93112C5.87995 3.99123 6.06115 4.14916 6.15757 4.63815L7.43301 4.38668ZM4.88983 2.6294C4.41823 2.73782 3.99173 2.98672 3.72323 3.42382C3.46153 3.84982 3.40616 4.36355 3.48073 4.89749L4.76824 4.71767C4.71983 4.37103 4.77757 4.19112 4.83092 4.10427C4.87745 4.02852 4.96794 3.94535 5.1811 3.89635L4.88983 2.6294ZM4.12449 4.80758C3.48857 4.94215 3.48858 4.94218 3.48859 4.94224C3.4886 4.94229 3.48862 4.94238 3.48864 4.94248C3.48868 4.94269 3.48875 4.94299 3.48883 4.9434C3.489 4.9442 3.48926 4.9454 3.48959 4.94698C3.49026 4.95014 3.49126 4.95484 3.49257 4.96104C3.4952 4.97343 3.4991 4.9918 3.5042 5.01582C3.51441 5.06385 3.52944 5.13446 3.54877 5.22496C3.58741 5.40594 3.64325 5.66646 3.71203 5.9849C3.84959 6.6217 4.03904 7.49053 4.24657 8.4183C4.6588 10.2612 5.15071 12.3751 5.44747 13.3417L6.69023 12.9602C6.4116 12.0526 5.93133 9.99476 5.51522 8.13453C5.30858 7.21074 5.11983 6.34516 4.98272 5.71042C4.91418 5.3931 4.85856 5.13358 4.8201 4.95346C4.80087 4.86341 4.78593 4.79321 4.7758 4.74556C4.77074 4.72174 4.76688 4.70356 4.76429 4.69135C4.763 4.68525 4.76202 4.68064 4.76137 4.67757C4.76104 4.67604 4.7608 4.67489 4.76064 4.67412C4.76056 4.67374 4.7605 4.67346 4.76046 4.67327C4.76044 4.67318 4.76043 4.67311 4.76042 4.67307C4.76041 4.67303 4.7604 4.67301 4.12449 4.80758ZM6.51298 12.6764C4.61198 10.8974 4.17186 10.5093 3.24136 10.0142L2.63063 11.1618C3.38265 11.562 3.69877 11.8232 5.62472 13.6256L6.51298 12.6764ZM3.24136 10.0142C2.17325 9.44573 0.938666 9.69624 0.496028 10.7057L1.6866 11.2277C1.73576 11.1156 2.01622 10.8348 2.63063 11.1618L3.24136 10.0142ZM0.496028 10.7057C0.28976 11.1761 0.318705 11.7691 0.478804 12.2767C0.644138 12.8009 0.984509 13.3505 1.54227 13.7012L2.2343 12.6007C1.99504 12.4503 1.81398 12.1881 1.71861 11.8857C1.618 11.5667 1.64697 11.3181 1.6866 11.2277L0.496028 10.7057ZM1.54225 13.7012C2.8359 14.5147 3.42395 15.3397 4.47489 17.1302L5.59604 16.4722C4.52185 14.642 3.80379 13.5877 2.23432 12.6007L1.54225 13.7012ZM4.47489 17.1302C5.12019 18.2297 5.65288 19.1256 6.49108 19.6933C7.3531 20.2772 8.44489 20.4619 10.063 20.4619V19.1619C8.50316 19.1619 7.74531 18.9727 7.22011 18.617C6.67108 18.2451 6.27894 17.6357 5.59604 16.4722L4.47489 17.1302ZM13.6827 7.3043L12.7136 11.8597L13.9852 12.1302L14.9542 7.57481L13.6827 7.3043ZM6.16405 4.66746L7.74932 11.1218L9.0118 10.8117L7.42653 4.35737L6.16405 4.66746ZM8.15509 14.2714C8.78678 14.566 9.98123 15.5588 9.87681 17.122L11.1739 17.2086C11.3292 14.8835 9.57803 13.5005 8.70443 13.0932L8.15509 14.2714Z" fill="white"/>
</svg>
